<svg xmlns="http://www.w3.org/2000/svg" width="176" height="52" fill="#fff" xmlns:v="https://vecta.io/nano"><path d="M7.765 23.383l2.645-1.309 4.181-6.282 1.28-.523 1.365 6.369-1.792.262-1.365-2.617-1.024 4.101h4.523l4.693 1.221 1.877-1.221 3.157 3.315 1.365-6.107 2.219 2.269 1.365-1.92 2.219-.611 3.243-3.054.512-1.483 2.645.436 1.109 1.483-1.963 4.188 4.864-2.53v-1.221l1.877-.436 2.048 2.094 2.048-2.53V15.53l3.328-2.356 1.365-2.007h2.133l3.755-7.765L64.683 0l1.195 1.919L64 4.362l.683 1.57 1.792.349 1.451 6.456v5.409l2.56 3.577 1.28 4.973-4.437-2.879-1.963-8.289-1.195.262L64 21.376l-3.243 5.322-.939 8.114 2.219.523.939-1.134 2.133 2.443 1.621 7.329-.171 4.711h-2.048l-.768-6.631-1.451 2.007-3.157-.698-2.56-2.181-2.901 1.047.171 4.711-2.304.611-3.413 2.617-4.096-.523-1.621-.96-2.56.436.853 1.047-2.048 1.221-1.621-.785L33.963 52l-4.693-2.356-1.792-4.188-1.536.174-1.792-1.483-.085-1.134-5.717-.611-.939 3.141-3.584-1.658-1.792-3.054h-3.84l-.427 4.886-2.219.698-1.109 4.45-.853-.785L0 40.745l4.267-2.094-.683-4.101-.683-4.188 1.877-2.705L4.181 26l2.56-2.792 1.024.174zm56.747 10.295l3.925 5.933 1.28-.523-1.621-2.443-3.584-3.839v.873zm-40.107-12.04v-1.745l2.987-2.181 2.56-1.309h-2.987l-2.645 1.57-1.621 1.483v2.181h1.707zM89.831 41h4.723v-5.182h2.616c3.967 0 6.626-2.344 6.626-6.102 0-3.716-2.591-6.171-6.456-6.171h-7.51V41zm4.723-8.864V27.33h1.665c1.656 0 2.65.886 2.65 2.386 0 1.491-.994 2.42-2.65 2.42h-1.665zm17.05 9.103c4.247 0 6.762-2.727 6.762-6.75s-2.515-6.75-6.762-6.75-6.762 2.727-6.762 6.75 2.514 6.75 6.762 6.75zm.034-3.477c-1.257 0-2.005-1.253-2.005-3.307s.748-3.307 2.005-3.307c1.189 0 1.937 1.253 1.937 3.307s-.748 3.307-1.937 3.307zm14.917 3.477c3.865 0 6.235-2.224 6.286-5.693h-4.349c-.102 1.372-.841 2.114-1.869 2.114-1.232 0-2.039-1.057-2.039-3.205s.807-3.205 2.039-3.205c1.036 0 1.742.742 1.869 2.114h4.349c-.025-3.409-2.446-5.625-6.286-5.625-4.247 0-6.762 2.727-6.762 6.75s2.515 6.75 6.762 6.75zm14.507 0c3.866 0 6.236-2.224 6.287-5.693h-4.35c-.102 1.372-.841 2.114-1.869 2.114-1.231 0-2.038-1.057-2.038-3.205s.807-3.205 2.038-3.205c1.037 0 1.742.742 1.869 2.114h4.35c-.026-3.409-2.447-5.625-6.287-5.625-4.247 0-6.762 2.727-6.762 6.75s2.515 6.75 6.762 6.75zM153.701 35v-7.09h-4.418V41h4.418l3.636-7.125V41h4.417V27.91h-4.417L153.701 35zm17.95 6H176V27.91h-6.116c-3.764 0-6.142 1.909-6.117 4.568-.017 1.492.875 2.727 2.438 3.46L163.631 41h4.316l2.2-4.329h1.504V41zm0-7.159h-1.665c-1.249 0-1.827-.614-1.801-1.193-.026-.546.518-1.227 1.699-1.227h1.767v2.421z"/></svg>